<svg version="1.1" id="Layer_1" xmlns="http://www.w3.org/2000/svg" xmlns:xlink="http://www.w3.org/1999/xlink" x="0px" y="0px"
	 width="100%" viewBox="0 0 176 176" enable-background="new 0 0 176 176" xml:space="preserve">
<path fill="#FEFDFC" opacity="1.000000" stroke="none" 
	d="
M117.532669,66.161858 
	C116.661682,68.973961 117.686913,70.582352 120.222832,72.217209 
	C126.173126,76.053238 131.805756,80.382027 137.909500,84.756866 
	C133.586624,90.250389 129.829086,95.025497 126.194359,99.644531 
	C123.138138,97.347015 120.516304,95.376053 117.274040,92.938683 
	C115.999710,99.162621 115.225456,104.394180 113.836166,109.456970 
	C109.711136,124.489319 99.521309,134.491180 84.990891,138.314545 
	C78.285095,140.079041 70.215797,138.694412 63.080112,134.805740 
	C47.450943,126.288429 41.536053,109.211021 44.215603,93.190651 
	C46.985603,76.629501 61.664768,62.599010 78.015518,61.102234 
	C84.720200,60.488472 91.527954,61.000668 98.669128,61.000668 
	C98.669128,51.720425 98.669128,41.761505 98.669128,31.402227 
	C104.895584,31.402227 110.763802,31.402227 117.312111,31.402227 
	C117.312111,42.441383 117.312111,53.379978 117.350159,64.980759 
	C117.436363,65.815910 117.484520,65.988884 117.532669,66.161858 
M67.375130,86.013786 
	C63.587593,91.190407 61.277020,96.760719 61.933235,103.400177 
	C62.673653,110.891594 67.866043,117.773880 74.601486,119.656036 
	C81.430420,121.564323 87.334953,118.451172 92.443901,111.573120 
	C98.758926,103.071358 98.173950,93.214401 98.941139,83.591240 
	C99.011688,82.706253 97.369148,80.961380 96.371933,80.838966 
	C91.896652,80.289581 87.313072,80.527756 82.870079,79.832825 
	C76.649216,78.859825 72.020462,81.325378 67.375130,86.013786 
z"/>
</svg>